<?xml version="1.0" standalone="no"?>
<!DOCTYPE svg PUBLIC "-//W3C//DTD SVG 20010904//EN"
 "http://www.w3.org/TR/2001/REC-SVG-20010904/DTD/svg10.dtd">
<svg version="1.0" xmlns="http://www.w3.org/2000/svg"
 width="1276.000000pt" height="594.000000pt" viewBox="0 0 1276.000000 594.000000"
 preserveAspectRatio="xMidYMid meet">
<metadata>
Created by potrace 1.16, written by Peter Selinger 2001-2019
</metadata>
<g transform="translate(0.000000,594.000000) scale(0.100000,-0.100000)"
fill="#000000" stroke="none">
<path d="M4176 4575 c-32 -13 -72 -36 -88 -52 -39 -37 -139 -243 -181 -373
-62 -189 -119 -484 -133 -686 l-7 -91 -76 -7 c-95 -9 -262 -38 -372 -65 -46
-11 -105 -23 -132 -26 -26 -3 -84 -25 -130 -47 -64 -32 -101 -60 -169 -128
-49 -48 -88 -82 -88 -75 0 26 -82 175 -108 196 -50 40 -200 12 -254 -48 -29
-32 -66 -124 -82 -206 -13 -61 -17 -166 -20 -490 -3 -270 -10 -475 -21 -595
-16 -175 -16 -184 2 -219 24 -48 61 -74 117 -83 62 -9 160 6 216 32 67 33 134
104 148 158 18 69 32 286 39 615 l6 300 45 90 c24 50 63 117 85 150 52 76 151
179 168 173 7 -2 18 -22 26 -43 29 -85 28 -149 -8 -390 -7 -44 -9 -93 -5 -108
23 -91 219 -90 336 3 56 45 66 69 80 198 16 145 9 263 -19 327 -12 26 -20 49
-18 51 5 5 210 24 214 20 5 -4 -16 -244 -57 -676 -35 -369 -55 -710 -46 -773
9 -58 45 -103 94 -117 124 -34 332 25 388 110 28 43 31 63 44 280 6 96 22 303
35 460 14 157 31 387 39 513 7 125 15 229 17 231 2 3 50 1 106 -4 131 -12 184
2 249 65 80 76 55 97 -134 114 -70 7 -147 14 -171 17 l-44 6 7 242 c7 255 16
381 41 561 23 168 31 381 15 400 -19 22 -86 18 -154 -10z"/>
<path d="M1619 4420 c-63 -33 -151 -143 -231 -290 -77 -140 -350 -677 -458
-900 -62 -129 -118 -238 -124 -242 -26 -17 -520 12 -540 32 -13 13 3 64 40
125 19 32 34 64 34 72 0 35 -36 87 -79 114 -76 49 -158 37 -215 -31 -130 -156
49 -452 304 -500 29 -5 124 -10 211 -10 101 0 159 -4 159 -10 0 -13 -162 -337
-252 -504 -123 -227 -228 -395 -290 -463 -127 -141 -146 -262 -48 -303 82 -34
189 63 328 296 79 134 326 617 445 872 l58 122 62 0 c34 1 147 5 250 10 103 5
198 5 210 1 l22 -8 1 -369 c1 -377 11 -544 40 -621 34 -93 182 -186 338 -214
82 -14 177 -7 212 16 45 29 49 53 35 198 -8 73 -16 306 -18 519 -5 387 2 598
34 1048 21 296 23 607 4 680 -18 74 -50 135 -104 201 -113 139 -320 216 -428
159z m-53 -747 c-14 -186 -31 -410 -36 -498 -6 -88 -14 -163 -18 -166 -4 -4
-109 -9 -234 -12 l-226 -5 41 86 c50 105 380 752 445 874 26 48 48 81 50 73 2
-8 -8 -166 -22 -352z"/>
<path d="M5144 3115 c-143 -31 -319 -155 -431 -305 -93 -123 -162 -306 -184
-483 -24 -197 26 -384 139 -526 140 -174 294 -230 509 -185 250 51 456 247
471 446 4 55 3 57 -22 64 -38 9 -105 0 -149 -21 -29 -14 -45 -33 -74 -88 -43
-82 -97 -143 -135 -152 -39 -10 -95 21 -134 74 -57 79 -93 230 -94 393 0 62 2
68 23 72 178 35 283 81 360 158 94 94 131 215 108 349 -21 115 -82 178 -200
205 -69 17 -108 16 -187 -1z m116 -207 c29 -48 46 -159 31 -208 -23 -78 -80
-120 -184 -135 -43 -7 -47 -5 -47 13 0 39 51 194 95 288 41 89 46 94 65 84 12
-6 30 -25 40 -42z"/>
<path d="M6862 3035 c-57 -48 -134 -266 -216 -615 -56 -238 -87 -334 -134
-424 -36 -69 -126 -171 -142 -161 -15 9 -71 168 -90 255 -22 99 -37 261 -45
485 -7 182 -21 343 -36 397 -7 28 -16 39 -35 44 -69 18 -174 -29 -199 -89 -18
-44 -61 -305 -76 -460 -15 -167 -7 -446 16 -547 35 -150 99 -252 194 -308 40
-24 57 -27 131 -27 76 0 93 4 150 32 86 43 174 117 244 205 69 86 117 177 166
317 l37 103 6 -153 c10 -224 9 -295 -8 -384 -8 -44 -17 -92 -19 -106 l-5 -26
71 5 71 5 -6 -199 c-4 -156 -10 -218 -26 -284 -60 -239 -137 -409 -273 -605
l-49 -70 73 76 c40 41 103 118 141 170 69 96 192 333 222 426 9 29 18 53 21
53 16 0 77 -118 92 -179 l19 -73 7 56 c10 91 -13 200 -61 283 l-24 41 16 99
c8 54 20 124 25 156 6 32 14 112 17 177 l6 118 86 40 c47 21 101 45 119 52 36
14 52 36 52 74 0 62 -60 71 -175 26 -42 -16 -77 -30 -79 -30 -1 0 -6 78 -10
173 -12 311 -70 860 -93 883 -10 9 -37 14 -83 14 -58 0 -73 -4 -98 -25z"/>
</g>
</svg>
